<svg width="150" height="20" viewBox="0 0 150 20" fill="none" xmlns="http://www.w3.org/2000/svg">
<path fill-rule="evenodd" clip-rule="evenodd" d="M10.0879 0.00012207C4.56513 0.00012207 0.0880127 4.47724 0.0880127 10C0.0880127 15.5228 4.56515 20 10.088 20H139.913C145.435 20 149.912 15.5228 149.912 10C149.912 4.47724 145.435 0.00012207 139.912 0.00012207H10.0879ZM57.7669 14.2366C58.1622 14.4361 58.7118 14.5346 59.4146 14.5346L59.4183 14.5321H63.545C64.3664 14.5321 64.9938 14.4915 65.4299 14.4127C65.8646 14.3338 66.1648 14.2452 66.3278 14.1454C66.4909 14.0469 66.5724 13.9718 66.5724 13.9225L65.9634 12.941C65.7461 12.9816 65.1841 13.0185 64.2787 13.053C63.3733 13.0875 62.0986 13.1048 60.4559 13.1048H59.8469C59.4023 13.1048 59.0922 13.0136 58.9193 12.8301C58.7464 12.6466 58.6599 12.3868 58.6599 12.0493V8.25614C58.6599 7.55169 59.0552 7.19946 59.8469 7.19946H60.6041C62.1777 7.19946 63.377 7.21671 64.2033 7.25119C65.0297 7.2869 65.5274 7.31892 65.6954 7.34848L65.9918 6.11447C65.9918 6.03565 65.8103 5.95806 65.4496 5.88417C65.0877 5.80904 64.5665 5.7721 63.8834 5.7721H59.4158C58.4549 5.7721 57.762 5.9987 57.3371 6.44945C56.9109 6.9002 56.6985 7.60218 56.6985 8.55417V11.8707C56.6985 12.457 56.7775 12.9471 56.9356 13.3437C57.0937 13.7415 57.3704 14.0383 57.7669 14.2366ZM26.3124 6.97881V14.5344L26.3136 14.5356H28.2726V11.6944C28.5394 11.7141 28.942 11.7388 29.4818 11.7683C30.0203 11.7979 30.6021 11.8126 31.2259 11.8126H32.7402C33.3145 11.8126 33.7802 11.7264 34.1359 11.5528C34.4916 11.3804 34.7646 11.1612 34.9523 10.8988C35.1401 10.6365 35.2685 10.3631 35.3377 10.0811C35.4069 9.79906 35.4415 9.5429 35.4415 9.31506V8.43696C35.4415 8.15863 35.4168 7.86676 35.3674 7.55887C35.3179 7.25098 35.2068 6.96157 35.0339 6.68816C34.8609 6.41599 34.5929 6.19554 34.2322 6.02682C33.8703 5.85933 33.3738 5.77435 32.7402 5.77435H26.1642L26.3124 6.97881ZM32.3091 10.384H28.2714V7.20049H32.3239C32.7587 7.20049 33.0613 7.31009 33.2293 7.52808C33.3973 7.74606 33.4813 8.01331 33.4813 8.33105V9.26826C33.4813 9.57615 33.3973 9.83847 33.2293 10.0565C33.0613 10.2744 32.755 10.384 32.3091 10.384ZM10.6654 14.4459C10.9828 14.505 11.4769 14.5346 12.15 14.5346H17.0771C18.0171 14.5346 18.6766 14.3055 19.0583 13.8498C19.44 13.3941 19.6302 12.7944 19.6302 12.0505V11.8128C19.6302 11.149 19.5116 10.6453 19.2744 10.3029C19.0373 9.96057 18.6964 9.72535 18.2505 9.59603C17.8058 9.46672 17.2661 9.40268 16.6324 9.40268H13.337C12.9121 9.40268 12.607 9.3214 12.4242 9.1576C12.2414 8.9938 12.15 8.74873 12.15 8.42113V8.16866C12.1587 7.89033 12.2439 7.66003 12.402 7.47653C12.5601 7.29426 12.8664 7.2019 13.3222 7.2019L13.4852 7.21668C15.0193 7.21668 16.2421 7.23392 17.1524 7.2684C18.0628 7.30412 18.647 7.33614 18.9039 7.36569L19.2003 6.11567C19.2003 6.03685 18.9928 5.96172 18.5766 5.89276C18.1603 5.82256 17.6169 5.78808 16.9437 5.78808H12.906C12.213 5.78808 11.6683 5.90015 11.2731 6.12306C10.8766 6.3472 10.5974 6.64154 10.4344 7.00854C10.2714 7.37555 10.1898 7.77703 10.1898 8.213V8.45069C10.1898 9.2943 10.4171 9.90146 10.8729 10.2734C11.3287 10.6453 12.0562 10.8313 13.0554 10.8313H16.499C16.9931 10.8313 17.313 10.9052 17.4563 11.0542C17.5996 11.2032 17.6712 11.4508 17.6712 11.798V12.0961C17.6712 12.4631 17.5823 12.7229 17.4044 12.8769C17.2266 13.0308 16.9239 13.1072 16.499 13.1072H16.2174C14.6339 13.1072 13.3889 13.0899 12.4835 13.0555C11.5782 13.0197 11.0112 12.9828 10.7839 12.9434L10.1898 14.2378C10.1898 14.3166 10.3492 14.3868 10.6654 14.4459ZM39.8943 14.5346L44.2433 5.78812H47.1681L51.5023 14.5346H49.216L48.3403 12.6454H43.0254L42.0608 14.5346H39.8943ZM43.5627 11.1885H47.7919L45.7588 7.12805H45.6106L43.5627 11.1885ZM72.5076 14.5346V5.78812H81.7404V7.21549H74.4665V9.26849H80.0186V10.7414H74.4665V13.106H81.7997L82.3938 14.3708C82.3938 14.4102 82.2604 14.4472 81.9936 14.4829C81.7268 14.5174 81.2661 14.5346 80.6127 14.5346H72.5076ZM91.3002 7.20175L91.315 14.5344H93.274V7.20175H97.1487V5.77438H87.4403V7.20175H91.3002ZM103.086 14.5346V5.78812H105.045V14.5346H103.086ZM112.023 6.97912V14.5347L112.024 14.5359H113.983V8.98778H114.131L114.725 10.2821L116.595 13.6443H118.391L120.261 10.2821L120.84 8.98778H121.003V14.5359H122.962V5.78944H120.959L117.486 11.7391L114.131 5.78944H111.874L112.023 6.97912ZM129.792 14.5346V5.78812H139.025V7.21549H131.751V9.26849H137.303V10.7414H131.751V13.106H139.084L139.678 14.3708C139.678 14.4102 139.545 14.4472 139.278 14.4829C139.011 14.5174 138.55 14.5346 137.897 14.5346H129.792Z" fill="url(#paint0_linear_206_329)"/>
<defs>
<linearGradient id="paint0_linear_206_329" x1="2.57048" y1="-6.65243" x2="168.694" y2="-6.65243" gradientUnits="userSpaceOnUse">
<stop offset="0.251308" stop-color="#996DFF"/>
<stop offset="0.623787" stop-color="#FF876E"/>
<stop offset="1" stop-color="#FFD072"/>
</linearGradient>
</defs>
</svg>
